<mxfile host="app.diagrams.net" agent="Mozilla/5.0 (Windows NT 10.0; Win64; x64) AppleWebKit/537.36 (KHTML, like Gecko) Chrome/133.0.0.0 Safari/537.36 Edg/133.0.0.0" version="26.0.16">
  <diagram name="Страница — 1" id="iWyMIjU8vxR622FMGBJU">
    <mxGraphModel dx="2137" dy="1425" grid="0" gridSize="10" guides="1" tooltips="1" connect="1" arrows="1" fold="1" page="0" pageScale="1" pageWidth="827" pageHeight="1169" math="0" shadow="0">
      <root>
        <mxCell id="0" />
        <mxCell id="1" parent="0" />
        <mxCell id="s4Sy-uvkp59N9R9IIiVp-12" style="edgeStyle=none;curved=1;rounded=0;orthogonalLoop=1;jettySize=auto;html=1;exitX=0.5;exitY=1;exitDx=0;exitDy=0;entryX=0.5;entryY=0;entryDx=0;entryDy=0;fontSize=12;startSize=8;endSize=8;" edge="1" parent="1" source="s4Sy-uvkp59N9R9IIiVp-1" target="s4Sy-uvkp59N9R9IIiVp-2">
          <mxGeometry relative="1" as="geometry" />
        </mxCell>
        <mxCell id="s4Sy-uvkp59N9R9IIiVp-1" value="&lt;font style=&quot;font-size: 15px;&quot;&gt;Начало&lt;/font&gt;" style="ellipse;whiteSpace=wrap;html=1;" vertex="1" parent="1">
          <mxGeometry x="9" y="-101" width="78" height="43" as="geometry" />
        </mxCell>
        <mxCell id="s4Sy-uvkp59N9R9IIiVp-13" style="edgeStyle=none;curved=1;rounded=0;orthogonalLoop=1;jettySize=auto;html=1;exitX=0.5;exitY=1;exitDx=0;exitDy=0;entryX=0.5;entryY=0;entryDx=0;entryDy=0;fontSize=12;startSize=8;endSize=8;" edge="1" parent="1" source="s4Sy-uvkp59N9R9IIiVp-2" target="s4Sy-uvkp59N9R9IIiVp-3">
          <mxGeometry relative="1" as="geometry" />
        </mxCell>
        <mxCell id="s4Sy-uvkp59N9R9IIiVp-2" value="&lt;font style=&quot;font-size: 13px;&quot;&gt;Ввод данных:&amp;nbsp;&lt;/font&gt;&lt;div&gt;&lt;font style=&quot;font-size: 13px;&quot;&gt;точки (x&lt;sub&gt;0&lt;/sub&gt;;y&lt;sub&gt;0&lt;/sub&gt;), ..., (x&lt;sub&gt;n&lt;/sub&gt;;y&lt;sub&gt;n&lt;/sub&gt;)&lt;/font&gt;&lt;/div&gt;" style="shape=parallelogram;perimeter=parallelogramPerimeter;whiteSpace=wrap;html=1;fixedSize=1;" vertex="1" parent="1">
          <mxGeometry x="-17" y="-34" width="130" height="62" as="geometry" />
        </mxCell>
        <mxCell id="s4Sy-uvkp59N9R9IIiVp-14" style="edgeStyle=none;curved=1;rounded=0;orthogonalLoop=1;jettySize=auto;html=1;exitX=0.5;exitY=1;exitDx=0;exitDy=0;entryX=0.5;entryY=0;entryDx=0;entryDy=0;fontSize=12;startSize=8;endSize=8;" edge="1" parent="1" source="s4Sy-uvkp59N9R9IIiVp-3" target="s4Sy-uvkp59N9R9IIiVp-4">
          <mxGeometry relative="1" as="geometry" />
        </mxCell>
        <mxCell id="s4Sy-uvkp59N9R9IIiVp-16" style="edgeStyle=none;curved=1;rounded=0;orthogonalLoop=1;jettySize=auto;html=1;exitX=1;exitY=0.5;exitDx=0;exitDy=0;fontSize=12;startSize=8;endSize=8;" edge="1" parent="1" source="s4Sy-uvkp59N9R9IIiVp-3">
          <mxGeometry relative="1" as="geometry">
            <mxPoint x="48" y="-52" as="targetPoint" />
            <Array as="points">
              <mxPoint x="170" y="134" />
              <mxPoint x="221" y="-64" />
            </Array>
          </mxGeometry>
        </mxCell>
        <mxCell id="s4Sy-uvkp59N9R9IIiVp-3" value="&lt;font&gt;Проверка условий&lt;span style=&quot;background-color: transparent; color: light-dark(rgb(0, 0, 0), rgb(255, 255, 255));&quot;&gt;:&lt;/span&gt;&lt;/font&gt;&lt;div&gt;&lt;font&gt;x&lt;sub&gt;0&lt;/sub&gt;&amp;lt;x&lt;sub&gt;2&lt;/sub&gt;&amp;lt;...&amp;lt;x&lt;sub&gt;n&lt;/sub&gt;&lt;/font&gt;&lt;/div&gt;&lt;div&gt;&lt;font&gt;и&lt;/font&gt;&lt;/div&gt;&lt;div&gt;&lt;font&gt;n &amp;gt; = 3&lt;/font&gt;&lt;/div&gt;" style="rhombus;whiteSpace=wrap;html=1;" vertex="1" parent="1">
          <mxGeometry x="-42.5" y="46" width="181" height="146" as="geometry" />
        </mxCell>
        <mxCell id="s4Sy-uvkp59N9R9IIiVp-19" style="edgeStyle=none;curved=1;rounded=0;orthogonalLoop=1;jettySize=auto;html=1;exitX=0.5;exitY=1;exitDx=0;exitDy=0;fontSize=12;startSize=8;endSize=8;" edge="1" parent="1" source="s4Sy-uvkp59N9R9IIiVp-4" target="s4Sy-uvkp59N9R9IIiVp-5">
          <mxGeometry relative="1" as="geometry" />
        </mxCell>
        <mxCell id="s4Sy-uvkp59N9R9IIiVp-4" value="Инициализация:&lt;div&gt;1. Число интервалов m=n&lt;/div&gt;&lt;div&gt;2. Создание массивов: a[m], b[m], c[m],d[m]&lt;/div&gt;" style="rounded=0;whiteSpace=wrap;html=1;" vertex="1" parent="1">
          <mxGeometry x="-38" y="209" width="171" height="72" as="geometry" />
        </mxCell>
        <mxCell id="s4Sy-uvkp59N9R9IIiVp-20" style="edgeStyle=none;curved=1;rounded=0;orthogonalLoop=1;jettySize=auto;html=1;exitX=0.5;exitY=1;exitDx=0;exitDy=0;entryX=0.5;entryY=0;entryDx=0;entryDy=0;fontSize=12;startSize=8;endSize=8;" edge="1" parent="1" source="s4Sy-uvkp59N9R9IIiVp-5" target="s4Sy-uvkp59N9R9IIiVp-6">
          <mxGeometry relative="1" as="geometry" />
        </mxCell>
        <mxCell id="s4Sy-uvkp59N9R9IIiVp-5" value="&lt;font style=&quot;font-size: 13px;&quot;&gt;Задаем краевые условия (например, естественный сплайн)&lt;/font&gt;" style="rounded=0;whiteSpace=wrap;html=1;" vertex="1" parent="1">
          <mxGeometry x="-24" y="299" width="144" height="62" as="geometry" />
        </mxCell>
        <mxCell id="s4Sy-uvkp59N9R9IIiVp-21" style="edgeStyle=none;curved=1;rounded=0;orthogonalLoop=1;jettySize=auto;html=1;exitX=0.5;exitY=1;exitDx=0;exitDy=0;entryX=0.5;entryY=0;entryDx=0;entryDy=0;fontSize=12;startSize=8;endSize=8;" edge="1" parent="1" source="s4Sy-uvkp59N9R9IIiVp-6" target="s4Sy-uvkp59N9R9IIiVp-7">
          <mxGeometry relative="1" as="geometry" />
        </mxCell>
        <mxCell id="s4Sy-uvkp59N9R9IIiVp-6" value="&lt;font style=&quot;font-size: 13px;&quot;&gt;Построение СЛАУ для&amp;nbsp; c&lt;sub&gt;i&lt;/sub&gt;&amp;nbsp;(вторые производные)&lt;/font&gt;" style="rounded=0;whiteSpace=wrap;html=1;" vertex="1" parent="1">
          <mxGeometry x="-12" y="379" width="120" height="60" as="geometry" />
        </mxCell>
        <mxCell id="s4Sy-uvkp59N9R9IIiVp-22" style="edgeStyle=none;curved=1;rounded=0;orthogonalLoop=1;jettySize=auto;html=1;exitX=0.5;exitY=1;exitDx=0;exitDy=0;entryX=0.5;entryY=0;entryDx=0;entryDy=0;fontSize=12;startSize=8;endSize=8;" edge="1" parent="1" source="s4Sy-uvkp59N9R9IIiVp-7" target="s4Sy-uvkp59N9R9IIiVp-8">
          <mxGeometry relative="1" as="geometry" />
        </mxCell>
        <mxCell id="s4Sy-uvkp59N9R9IIiVp-7" value="&lt;font style=&quot;font-size: 13px;&quot;&gt;Вычисление СЛАУ для нахождения c&lt;sub&gt;i&lt;/sub&gt;&lt;/font&gt;" style="rounded=0;whiteSpace=wrap;html=1;" vertex="1" parent="1">
          <mxGeometry x="-12.5" y="457" width="120" height="60" as="geometry" />
        </mxCell>
        <mxCell id="s4Sy-uvkp59N9R9IIiVp-23" style="edgeStyle=none;curved=1;rounded=0;orthogonalLoop=1;jettySize=auto;html=1;exitX=0.5;exitY=1;exitDx=0;exitDy=0;entryX=0.5;entryY=0;entryDx=0;entryDy=0;fontSize=12;startSize=8;endSize=8;" edge="1" parent="1" source="s4Sy-uvkp59N9R9IIiVp-8" target="s4Sy-uvkp59N9R9IIiVp-9">
          <mxGeometry relative="1" as="geometry" />
        </mxCell>
        <mxCell id="s4Sy-uvkp59N9R9IIiVp-8" value="&lt;font style=&quot;font-size: 13px;&quot;&gt;Вычисление коэффициентов для каждого сплайна: для i=0 до m-1:&lt;/font&gt;&lt;div&gt;&lt;font style=&quot;font-size: 13px;&quot;&gt;a&lt;sub&gt;i&lt;/sub&gt;&amp;nbsp;= y&lt;sub&gt;i&lt;/sub&gt;&lt;/font&gt;&lt;/div&gt;&lt;div&gt;&lt;font style=&quot;font-size: 13px;&quot;&gt;b&lt;sub&gt;i&lt;/sub&gt;&amp;nbsp;= (y&lt;sub&gt;i+1&lt;/sub&gt;&amp;nbsp;- y&lt;sub&gt;i&lt;/sub&gt;)/h&lt;sub&gt;i&lt;/sub&gt;&amp;nbsp;- (h&lt;sub&gt;i&lt;/sub&gt;(2*c&lt;sub&gt;i&lt;/sub&gt;+c&lt;sub&gt;i+1&lt;/sub&gt;)/3&lt;/font&gt;&lt;/div&gt;&lt;div&gt;&lt;font style=&quot;font-size: 13px;&quot;&gt;d&lt;sub&gt;i&lt;/sub&gt;=(c&lt;sub&gt;i+1&lt;/sub&gt;&amp;nbsp;-c&lt;sub&gt;i&lt;/sub&gt;)/(3h&lt;sub&gt;i&lt;/sub&gt;)&lt;/font&gt;&lt;/div&gt;" style="rounded=0;whiteSpace=wrap;html=1;" vertex="1" parent="1">
          <mxGeometry x="-61.5" y="535" width="218" height="130" as="geometry" />
        </mxCell>
        <mxCell id="s4Sy-uvkp59N9R9IIiVp-24" style="edgeStyle=none;curved=1;rounded=0;orthogonalLoop=1;jettySize=auto;html=1;exitX=0.5;exitY=1;exitDx=0;exitDy=0;entryX=0.5;entryY=0;entryDx=0;entryDy=0;fontSize=12;startSize=8;endSize=8;" edge="1" parent="1" source="s4Sy-uvkp59N9R9IIiVp-9" target="s4Sy-uvkp59N9R9IIiVp-10">
          <mxGeometry relative="1" as="geometry" />
        </mxCell>
        <mxCell id="s4Sy-uvkp59N9R9IIiVp-9" value="&lt;font style=&quot;font-size: 13px;&quot;&gt;Построение кубических сплайнов на интервалах:&lt;/font&gt;&lt;div&gt;&lt;font style=&quot;font-size: 13px;&quot;&gt;S&lt;sub&gt;i&lt;/sub&gt;(x)=a&lt;sub&gt;i&lt;/sub&gt;+b&lt;sub&gt;i&lt;/sub&gt;(x-x&lt;sub&gt;i&lt;/sub&gt;)+c&lt;sub&gt;i&lt;/sub&gt;(x-x&lt;sub&gt;i&lt;/sub&gt;)&lt;sup&gt;2&lt;/sup&gt;+d&lt;sub&gt;i&lt;/sub&gt;(x-x&lt;sub&gt;i&lt;/sub&gt;)&lt;sup&gt;3&lt;/sup&gt;&lt;/font&gt;&lt;/div&gt;" style="rounded=0;whiteSpace=wrap;html=1;" vertex="1" parent="1">
          <mxGeometry x="-53" y="684" width="202" height="81" as="geometry" />
        </mxCell>
        <mxCell id="s4Sy-uvkp59N9R9IIiVp-25" style="edgeStyle=none;curved=1;rounded=0;orthogonalLoop=1;jettySize=auto;html=1;exitX=0.5;exitY=1;exitDx=0;exitDy=0;entryX=0.5;entryY=0;entryDx=0;entryDy=0;fontSize=12;startSize=8;endSize=8;" edge="1" parent="1" source="s4Sy-uvkp59N9R9IIiVp-10" target="s4Sy-uvkp59N9R9IIiVp-11">
          <mxGeometry relative="1" as="geometry" />
        </mxCell>
        <mxCell id="s4Sy-uvkp59N9R9IIiVp-10" value="&lt;font style=&quot;font-size: 13px;&quot;&gt;Вывод результата: коэффициенты a,b,c,d; формулы сплайнов; возможность расчета значений в любой x&lt;/font&gt;" style="shape=parallelogram;perimeter=parallelogramPerimeter;whiteSpace=wrap;html=1;fixedSize=1;" vertex="1" parent="1">
          <mxGeometry x="-96.75" y="783" width="289.5" height="90" as="geometry" />
        </mxCell>
        <mxCell id="s4Sy-uvkp59N9R9IIiVp-11" value="&lt;font style=&quot;font-size: 15px;&quot;&gt;Конец&lt;/font&gt;" style="ellipse;whiteSpace=wrap;html=1;" vertex="1" parent="1">
          <mxGeometry x="2.5" y="892" width="90" height="50" as="geometry" />
        </mxCell>
        <mxCell id="s4Sy-uvkp59N9R9IIiVp-15" value="Да" style="text;html=1;align=center;verticalAlign=middle;whiteSpace=wrap;rounded=0;" vertex="1" parent="1">
          <mxGeometry x="39" y="184" width="60" height="30" as="geometry" />
        </mxCell>
        <mxCell id="s4Sy-uvkp59N9R9IIiVp-18" value="Нет" style="text;html=1;align=center;verticalAlign=middle;whiteSpace=wrap;rounded=0;" vertex="1" parent="1">
          <mxGeometry x="156.5" y="95" width="60" height="30" as="geometry" />
        </mxCell>
      </root>
    </mxGraphModel>
  </diagram>
</mxfile>
